<svg xmlns="http://www.w3.org/2000/svg" width="68" height="68" viewBox="0 0 68 68">
  <path fill="#000" fill-rule="evenodd" d="M190.950343,3321.6185 C190.863374,3322.01022 190.666495,3323.07492 190.518237,3323.28914 C190.367582,3323.50673 190.464823,3323.41377 190.026896,3323.62361 C189.586915,3323.83345 188.040305,3323.94662 187.277443,3324.03083 C186.344752,3324.13962 185.556894,3324.51552 184.91798,3324.99482 L184.519429,3325.30234 C182.390058,3327.58162 182.479082,3330.32505 181.868587,3332.96373 C181.815172,3333.20187 181.519683,3334.46799 181.19509,3335.19856 C180.871182,3335.92509 180.464414,3336.84495 180.378814,3337.2323 C180.287052,3337.61527 180.353134,3337.85306 180.258975,3339.85851 C180.168924,3341.85958 180.677727,3343.29614 180.657526,3343.70336 C180.640748,3344.10687 180.623971,3344.45009 180.649993,3344.88561 C180.673276,3345.32112 181.042723,3346.20932 181.288907,3346.66437 C181.306712,3346.693 181.318696,3346.72938 181.326571,3346.76171 C181.38786,3346.79405 181.433057,3346.82605 181.453601,3346.85468 C181.567961,3347.04027 182.302404,3347.17365 182.412999,3347.20969 C182.524621,3347.24573 182.529414,3347.33465 182.532838,3347.40741 C182.540371,3347.47612 182.713282,3347.67754 182.773886,3347.68124 C182.836887,3347.68596 183.000553,3347.88738 183.01288,3347.95609 C183.028288,3348.02514 183.229275,3348.12551 183.197774,3348.15785 C183.164219,3348.19018 183.094028,3348.19018 183.094028,3348.19018 C183.094028,3348.19018 183.082044,3348.31043 182.975216,3348.34681 C182.865306,3348.38756 182.455114,3348.42798 182.455114,3348.42798 C182.455114,3348.42798 182.294529,3348.5004 182.015475,3348.54452 C181.736079,3348.58898 181.41217,3348.55294 181.293016,3348.50444 C181.173862,3348.46032 180.623971,3348.4199 180.533578,3348.27001 C180.517828,3348.24205 180.500023,3348.18547 180.488039,3348.11676 C180.246649,3347.89142 180.151462,3347.40707 180.041895,3346.9628 C179.906648,3346.42253 179.606365,3346.25682 179.482759,3346.00285 C179.355388,3345.74855 178.891781,3345.78897 178.785638,3345.56262 C178.620602,3345.21165 178.941086,3345.05436 178.719897,3343.76331 C178.645939,3343.33521 178.444952,3341.87137 178.444952,3341.87137 C178.444952,3341.87137 178.322716,3343.09775 178.038526,3345.17561 C177.788576,3347.0076 178.363461,3348.20905 178.641488,3348.52061 C178.854802,3348.58494 179.072909,3348.6257 179.129405,3348.64456 C179.241369,3348.68161 179.246163,3348.77053 179.249587,3348.83857 C179.257462,3348.912 179.429003,3349.11342 179.490635,3349.11746 C179.553293,3349.1215 179.717302,3349.3236 179.729286,3349.39197 C179.745036,3349.46001 179.9426,3349.56106 179.910072,3349.59339 C179.876517,3349.62573 179.810776,3349.62573 179.810776,3349.62573 C179.810776,3349.62573 179.79982,3349.74631 179.688198,3349.78269 C179.581712,3349.82311 179.171862,3349.86352 179.171862,3349.86352 C179.171862,3349.86352 179.007169,3349.93661 178.727773,3349.98108 C178.449746,3350.02486 178.128919,3349.98478 178.009422,3349.94066 C177.889925,3349.8962 177.336268,3349.85544 177.250327,3349.7069 C177.226016,3349.66615 177.205472,3349.57386 177.185613,3349.4563 C177.029138,3348.95242 176.77097,3347.59232 176.675441,3347.28615 C176.565531,3346.9308 176.196426,3347.01972 176.010847,3346.79405 C175.828007,3346.56804 176.018722,3346.29319 176.044402,3346.22515 C176.064946,3346.16048 176.295722,3345.63639 176.290243,3344.74852 C176.285792,3344.06241 176.315238,3341.24252 176.496709,3340.1374 C176.675783,3339.02757 176.286135,3337.80557 176.351875,3337.5186 C176.413507,3337.22826 176.767203,3336.5829 176.767203,3336.5829 C176.767203,3336.5829 175.416445,3336.75637 174.919968,3336.79678 C174.41904,3336.83687 172.765944,3336.94196 171.135789,3336.20364 C169.507003,3335.4697 167.672436,3334.04089 167.537531,3333.96848 C167.401942,3333.89606 165.14109,3331.91924 162.847025,3335.19923 C162.814155,3335.24369 162.764165,3335.29657 162.694316,3335.35619 C161.94378,3336.19993 160.930968,3337.24442 160.650887,3337.58697 C160.359849,3337.95445 158.783792,3339.21417 158.537608,3339.33004 C158.295533,3339.44792 158.02093,3339.6288 157.651483,3339.82651 C157.405299,3339.95619 156.629768,3340.52542 155.931962,3341.02931 C155.829242,3341.16236 155.710773,3341.30315 155.57895,3341.44462 C155.094799,3341.96905 154.947226,3342.31227 154.733912,3342.69086 C154.51649,3343.06608 154.537033,3343.4696 154.520256,3344.05904 C154.50793,3344.64781 154.610991,3345.19245 154.733912,3345.38545 C154.852724,3345.58317 155.628255,3345.72093 155.747752,3345.76168 C155.866221,3345.79773 155.870672,3345.89473 155.874781,3345.96681 C155.882999,3346.04327 156.0631,3346.25345 156.129183,3346.25715 C156.194581,3346.26153 156.367149,3346.47541 156.384269,3346.54817 C156.396253,3346.62059 156.608882,3346.72938 156.572245,3346.76542 C156.539375,3346.79775 156.465417,3346.79775 156.465417,3346.79775 C156.465417,3346.79775 156.453776,3346.92305 156.338388,3346.96314 C156.227451,3347.00389 155.788839,3347.04431 155.788839,3347.04431 C155.788839,3347.04431 155.621065,3347.12447 155.325233,3347.16927 C155.029401,3347.21744 154.688716,3347.17702 154.565452,3347.12818 C154.438765,3347.08069 153.856004,3347.03993 153.761503,3346.87859 C153.666316,3346.7213 153.564282,3345.02236 153.548189,3344.51409 C153.539629,3344.21937 153.441361,3343.79194 153.358501,3343.48577 C153.252357,3343.63801 153.170867,3343.77139 153.124643,3343.8529 C152.928107,3344.21937 152.784642,3344.67947 152.788408,3345.3447 C152.788408,3345.95401 152.517914,3347.04364 153.039044,3347.48319 C153.284543,3347.63274 153.838885,3347.73749 153.93681,3347.76949 C154.05665,3347.80553 154.060416,3347.89917 154.064525,3347.97529 C154.072742,3348.04804 154.253528,3348.26226 154.319269,3348.26597 C154.384667,3348.26967 154.557235,3348.48423 154.569904,3348.55665 C154.585996,3348.6294 154.795201,3348.73786 154.762331,3348.77019 C154.729461,3348.80219 154.655503,3348.80623 154.655503,3348.80623 C154.655503,3348.80623 154.63941,3348.93187 154.528474,3348.97161 C154.417537,3349.01203 153.983034,3349.05212 153.983034,3349.05212 C153.983034,3349.05212 153.810808,3349.13329 153.519085,3349.17809 C153.223596,3349.22592 152.88291,3349.1855 152.759989,3349.137 C152.636726,3349.08917 152.053965,3349.04471 151.959464,3348.88707 C151.94748,3348.86316 151.935496,3348.82678 151.922827,3348.77794 C151.889615,3348.7904 151.861196,3348.79445 151.856744,3348.78636 C151.767379,3348.65298 151.467781,3348.205 151.43491,3347.95912 C151.40204,3347.71257 151.533179,3346.44611 151.56194,3345.80076 C151.590359,3345.15507 151.487982,3344.42483 151.520852,3344.01727 C151.549271,3343.605 151.524961,3342.75419 151.56194,3342.35842 C151.598919,3341.95928 151.455112,3341.71778 151.603028,3341.36277 C151.816341,3340.85821 152.284399,3340.75783 152.743554,3340.4914 C153.14998,3340.25293 153.77828,3339.79249 154.565452,3339.20339 C155.349886,3338.61462 155.612162,3338.00194 155.915869,3337.62604 C156.219576,3337.25487 156.219576,3336.73481 156.383927,3336.13324 C156.543826,3335.53201 156.716052,3335.35046 156.970111,3334.75765 C157.220404,3334.16047 157.298813,3333.10351 157.310797,3332.44199 C157.315591,3332.42953 157.332026,3332.33724 157.364211,3332.19577 C156.986204,3332.50262 156.584572,3332.85763 156.215809,3333.19648 C155.197176,3334.13251 155.098908,3335.87928 152.706575,3337.2067 C151.13497,3338.07806 148.910412,3336.97665 148.249585,3336.70214 C147.593551,3336.4283 145.897997,3336.60109 146.004826,3336.19387 C146.033929,3336.07699 146.73516,3335.90723 147.790429,3335.94732 C148.844672,3335.98874 150.29815,3336.8436 151.996785,3336.39967 C153.69542,3335.95237 154.668172,3333.37769 155.029401,3332.79296 C155.742958,3331.64338 157.056738,3330.80402 158.111323,3329.55305 C158.165079,3329.49243 158.209591,3329.44426 158.255472,3329.40384 C158.735172,3328.75512 160.060935,3327.66112 162.814498,3327.04001 C166.183691,3326.27306 166.549029,3327.7625 170.352725,3327.70962 C174.161557,3327.66112 174.974409,3326.78571 176.037554,3326.63212 C177.100356,3326.48324 177.965595,3325.70046 178.207328,3325.67251 C178.876373,3325.59167 179.471118,3324.55088 179.989508,3323.79977 C180.403809,3323.14229 181.215292,3321.85528 181.249189,3321.8152 C181.381012,3321.65757 181.498455,3321.50027 181.614185,3321.34735 C181.502906,3320.93576 181.350539,3320.12839 181.629935,3319.36178 C181.787438,3318.92256 182.295556,3319.32574 183.120735,3319.24524 C184.039045,3319.14823 184.486559,3318.92256 184.786842,3319.02698 C184.844022,3319.05561 184.880659,3319.12802 184.90086,3319.22469 C184.982351,3319.2934 185.791779,3319.18831 186.234842,3319.40691 C186.436172,3319.50729 186.698448,3319.26915 186.853554,3319.31361 C187.0114,3319.35807 187.265459,3319.92326 187.392146,3320.13715 C187.519518,3320.35069 187.876296,3320.57232 188.414546,3320.64508 C188.951768,3320.72221 189.567056,3320.74612 189.800229,3320.81012 C190.030663,3320.87883 190.658278,3320.831 190.835297,3320.92397 C191.011974,3321.01289 191.040051,3321.22711 190.950343,3321.6185 Z M170.00204,3301 C151.22418,3301 136,3316.2229 136,3334.99779 C136,3353.77676 151.22418,3369 170.00204,3369 C188.77514,3369 204,3353.77676 204,3334.99779 C204,3316.2229 188.77548,3301 170.00204,3301 Z" transform="translate(-136 -3301)"/>
</svg>
