<svg fill="none" xmlns="http://www.w3.org/2000/svg" viewBox="7.2 6 47 47"><path fill-rule="evenodd" clip-rule="evenodd" d="M8.7 38.41c4.13 6.03 12.23 9.14 21.89 9.13 9.66 0 17.76-3.1 21.88-9.13 3.38-4.93 2.19-12.07-2.45-18.24-4.63-6.16-11.8-10.22-19.21-10.3h-.45c-7.42.08-14.58 4.14-19.21 10.3-4.64 6.17-5.83 13.3-2.45 18.24zm5-16.32c4.1-5.47 10.46-9.03 16.89-9.03s12.77 3.56 16.88 9.03c3.9 5.18 4.85 10.9 2.37 14.52-3.44 5.02-10.55 7.74-19.25 7.74-8.71 0-15.82-2.72-19.26-7.74-2.48-3.63-1.52-9.34 2.37-14.52zm16.88 4.13c-.96 0-1.72.05-2.41.21-1.06.24-1.9.71-2.45 1.53-1.17 1.73-.48 4.07 1.84 7.33l.17.23.3.39c-2.52 1.2-5.8 1.4-8.43.37-1.71-.67-2.76-1.75-3-3.07-.29-1.63.54-3.8 2.78-6.4 1.1-1.28-.28-3.16-1.82-2.52l-.1.05c-.28.11-.48.12-.68.02l-.1-.04a1.6 1.6 0 00-1.53 2.79l.02.01-.05.08-.08.14c-1.38 2.25-1.91 4.38-1.6 6.33l.02.1.03.12c.49 2.46 2.32 4.33 4.94 5.36a14.11 14.11 0 0012.16-1.1 14.11 14.11 0 0012.15 1.1c2.67-1.05 4.51-2.95 4.97-5.47l.02-.11c.32-2-.24-4.17-1.68-6.47l-.05-.08.02-.01a1.6 1.6 0 00-1.58-2.77l-.04.02c-.23.1-.43.1-.74-.04l-.05-.03c-1.54-.64-2.92 1.24-1.82 2.52 2.24 2.6 3.07 4.77 2.78 6.4-.24 1.32-1.29 2.4-3 3.07-2.62 1.03-5.9.83-8.42-.37l.3-.39.16-.23.08-.11c2.26-3.2 2.91-5.51 1.76-7.22A3.81 3.81 0 0033 26.43c-.7-.16-1.46-.21-2.42-.21zm-1.7 3.33a6.5 6.5 0 011.23-.13h.95c.51.01.91.05 1.23.13.2.04.35.1.45.15l.05.03.01.01v.09a2 2 0 01-.1.58A12.23 12.23 0 0130.59 34c-.1-.12-.2-.23-.28-.35-1-1.38-1.6-2.46-1.84-3.24a1.87 1.87 0 01-.1-.62v-.05l.02-.01.04-.03c.1-.06.25-.1.45-.15zm95.31-11.62c-1.49 0-2.3.87-2.3 2.01 0 1.12.89 2 2.3 2 1.42 0 2.32-.88 2.32-2 0-1.14-.85-2.01-2.32-2.01zm-.72 5.52c-.77 0-1.2.42-1.2 1.2v10.4c0 .76.43 1.19 1.2 1.19h1.45c.77 0 1.22-.43 1.22-1.2v-10.4c0-.77-.45-1.19-1.22-1.19h-1.45zm-19.05 11.6V26.3h-1.15c-.4 0-.62-.22-.62-.62v-1.44c0-.4.22-.63.62-.63h1.15v-.82c0-3.9 2.58-4.82 4.72-4.82 2.24 0 4.28 1.04 4.28 3.4 0 .13-.02.28-.05.4-.05.3-.27.48-.6.48H111c-.33 0-.53-.2-.53-.45v-.15c0-.47-.47-.82-1.07-.82-.8 0-1.22.55-1.22 1.47v1.31h2.24c.4 0 .62.23.62.63v1.44c0 .4-.22.62-.62.62h-2.16v8.73c0 .77-.45 1.2-1.22 1.2h-1.42c-.77 0-1.2-.43-1.2-1.2zm-10.7-3.07v-5.67h-1.27c-.4 0-.65-.22-.65-.62v-1.62c0-.4.25-.62.65-.62h1.57l.42-2.59c.1-.52.45-.8.97-.8h1.22c.57 0 .87.33.87.88v2.51h2.89c.4 0 .62.22.62.62v1.62c0 .4-.23.62-.62.62H97.5v5.8c0 .94.47 1.32 1.05 1.32.64 0 1.06-.5 1.06-1.17 0-.13 0-.28-.02-.45-.05-.45.1-.67.52-.67h1.52c.32 0 .6.12.7.5.1.37.15.77.15.96 0 2.77-1.97 3.91-4.28 3.91-2.17 0-4.48-1-4.48-4.53zm-31.05 8.64V24.64c0-.77.42-1.19 1.2-1.19h1.46c.77 0 1.2.42 1.2 1.2v.6a4.66 4.66 0 014.1-2.07c3.58 0 6.15 2.9 6.15 6.66 0 3.78-2.57 6.67-6.15 6.67-1.69 0-3.18-.65-4.1-2.09v6.2c0 .77-.43 1.19-1.2 1.19h-1.46c-.78 0-1.2-.42-1.2-1.2zm10.25-10.78c0-1.96-1.17-3.58-3.18-3.58-1.97 0-3.26 1.54-3.26 3.58s1.3 3.59 3.26 3.59c2.01 0 3.18-1.6 3.18-3.59zm11.77-6.66c-4.3 0-7.02 3.1-7.02 6.71 0 3.66 2.79 6.62 7.37 6.62 1.64 0 3.35-.37 4.82-1.44.67-.5.72-1.17.23-1.77l-.28-.35c-.47-.57-1.02-.62-1.69-.25-.97.55-1.91.78-2.84.78-2.46 0-3.98-1.47-3.93-2.99h8.91c.75 0 1.24-.32 1.22-1.04-.17-4.08-3.16-6.27-6.8-6.27zm.05 2.9c1.32 0 2.78.55 3.13 2.27h-6.42c.43-1.67 1.94-2.26 3.29-2.26zm29.28-2.63c-.77 0-1.2.42-1.2 1.2v10.4c0 .76.43 1.19 1.2 1.19h1.47c.77 0 1.2-.43 1.2-1.2v-4.03c0-3.2 1.36-4.18 2.85-4.18.18 0 .37.02.57.05h.05c.53.08.88-.22.88-.92v-1.74c0-.5-.13-.97-.73-1.02l-.42-.02c-1.1 0-2.89.72-3.3 3.06v-1.6c0-.77-.43-1.19-1.2-1.19h-1.37zm13.8 6.44c0-3.6 2.72-6.71 7.02-6.71 3.63 0 6.62 2.19 6.8 6.27.02.72-.48 1.04-1.22 1.04h-8.91c-.05 1.52 1.47 2.99 3.93 2.99.92 0 1.87-.23 2.84-.78.67-.37 1.22-.32 1.69.25l.27.35c.5.6.45 1.27-.22 1.77a8.07 8.07 0 01-4.83 1.44c-4.58 0-7.36-2.96-7.36-6.62zm10.2-1.54c-.34-1.72-1.8-2.26-3.13-2.26-1.34 0-2.86.6-3.28 2.26h6.42zm5.18-3.7c0-.78.43-1.2 1.2-1.2h1.46c.77 0 1.2.42 1.2 1.2v.84c.62-1.47 1.99-2.31 3.88-2.31 3.43 0 4.68 2.68 4.68 5.7v6.16c0 .77-.45 1.2-1.22 1.2h-1.45c-.77 0-1.2-.43-1.2-1.2v-5.9c0-1.78-.69-2.83-2-2.83-1.32 0-2.7 1.02-2.7 3.4v5.33c0 .77-.42 1.2-1.19 1.2h-1.46c-.78 0-1.2-.43-1.2-1.2v-10.4zm13.93 5.2c0-3.76 2.57-6.67 6.17-6.67 1.67 0 3.16.64 4.08 2.09v-5.83c0-.77.45-1.19 1.22-1.19h1.44c.78 0 1.2.42 1.2 1.2v15.6c0 .76-.42 1.19-1.2 1.19h-1.44c-.77 0-1.22-.43-1.22-1.2v-.6a4.65 4.65 0 01-4.08 2.07c-3.6 0-6.17-2.89-6.17-6.67zm10.33 0c-.03-2.05-1.32-3.59-3.29-3.59-1.99 0-3.18 1.62-3.18 3.58 0 2 1.2 3.59 3.18 3.59 1.97 0 3.26-1.55 3.29-3.59zm6.3 5.2v-15.6c0-.78.42-1.2 1.19-1.2h1.44c.77 0 1.22.42 1.22 1.2v15.6c0 .76-.45 1.19-1.22 1.19h-1.44c-.77 0-1.2-.43-1.2-1.2zm8.23 5.37l2.09-5.05-4.73-10.5c-.37-.82.03-1.42.92-1.42h1.7c.69 0 1.16.3 1.38.97l2.62 6.94 2.63-6.94c.25-.67.73-.97 1.4-.97h1.62c.89 0 1.26.57.91 1.42l-6.99 16.02c-.27.65-.72.92-1.39.92h-1.24c-.9 0-1.27-.57-.92-1.4zm12.48-16.83v-.06c0-.04-.03-.07-.07-.07h-.74c-.05 0-.08.03-.08.07v.06c0 .05.03.08.08.08h.25v.8c0 .04.02.07.07.07h.1c.04 0 .06-.03.06-.07v-.8h.26c.04 0 .07-.03.07-.08zm.1.87l.08-.93c0-.05.03-.07.08-.07h.11c.04 0 .07.02.09.06l.27.67.28-.67c.02-.04.04-.06.08-.06h.12c.04 0 .07.02.07.07l.1.93c0 .05-.03.08-.08.08h-.1c-.04 0-.07-.02-.07-.07l-.05-.59-.24.59c-.02.04-.04.06-.09.06h-.04c-.04 0-.07-.02-.08-.06l-.24-.59-.05.59c0 .05-.03.07-.08.07h-.1c-.04 0-.07-.03-.06-.08z" fill="#E76B55"/></svg>
