<svg xmlns="http://www.w3.org/2000/svg" width="1440" height="516" viewBox="0 0 1440 516">
  <path fill="#000" fill-rule="evenodd" d="M1397.43946,317.201446 C1386.26361,320.068625 1371.55855,324.842225 1355.02352,320.813085 C1352.88689,340.74249 1363.71585,350.546228 1362.24283,370.470604 C1357.88912,429.655203 1285.24863,465.233366 1245.83403,420.133152 C1210.89883,448.55343 1140.97814,445.349232 1119.50121,408.397841 C1097.52154,426.073745 1064.28558,435.595795 1037.71592,426.617 C1029.59169,423.880605 1019.21519,424.127081 1004.89221,399.363714 C990.579282,374.600347 1003.83143,303.393718 995.873105,300.043647 C987.909748,296.693575 968.584531,325.833162 960.676475,342.482918 C952.356174,359.992827 943.950409,385.651559 944.438064,402.069928 C944.830199,415.510456 932.769534,416.295157 929.999452,407.492416 C925.419516,392.935198 929.215182,377.055054 929.999452,365.053145 C898.085696,393.966376 849.169368,448.140958 797.342192,451.732477 C779.726281,452.9548 761.793645,447.919632 751.32163,435.480102 C740.849614,423.035542 736.32498,396.265149 737.978985,375.400138 C741.362406,332.68924 766.423855,289.354604 789.222986,263.026864 C802.540494,247.649733 817.215392,231.744438 830.733995,226.910476 C844.252598,222.076514 854.186685,227.277676 852.391913,249.485734 C850.597141,271.688761 838.87331,304.575801 828.929169,318.106871 C827.139424,320.536427 819.482737,328.584648 814.490557,330.742577 C799.458715,337.256605 803.586187,322.588724 808.176178,319.007266 C812.761141,315.420777 824.188357,296.371646 828.929169,281.985453 C833.544296,267.98658 837.908055,242.010949 835.318958,238.77154 C830.618366,232.89131 818.633111,243.001886 800.956872,264.832683 C782.757786,287.297278 749.009039,345.998984 752.221529,393.941226 C753.905699,419.081853 767.60026,439.207434 796.442292,439.086711 C824.248686,438.976048 852.748856,417.381667 874.94973,399.363714 C889.805614,387.306474 929.386113,343.353132 932.704178,337.965854 C935.07207,327.312023 935.806066,309.776963 937.218758,295.531613 C940.933986,257.870973 941.084807,214.888447 948.042689,175.447138 C954.799477,137.182881 967.15173,104.160028 985.039119,74.3212514 C989.815122,66.3635737 1002.57962,45.8808533 1020.66308,50.7349361 C1034.93578,54.567901 1038.73648,82.7718826 1038.28401,97.7969037 C1037.75614,115.57341 1034.7548,134.345884 1031.06471,151.971486 C1020.62286,201.890571 998.462202,251.372035 979.629667,291.01958 C985.174858,289.475328 998.748762,283.092083 1006.70206,288.308336 C1011.99589,291.779131 1014.037,299.133192 1014.82127,306.36653 C1019.3459,348.06134 1001.36802,390.777269 1040.08884,412.00445 C1065.67816,426.033504 1097.33552,411.259989 1113.18683,393.941226 C1103.39351,359.449572 1119.08896,302.473203 1139.3543,282.890878 C1143.35106,279.027732 1151.34961,275.094164 1159.20236,275.6676 C1174.52076,276.77926 1181.95122,286.064894 1180.86531,305.461105 C1179.65371,326.990094 1168.57338,343.876266 1158.30749,359.640717 C1149.85648,372.598352 1141.26973,385.787373 1132.13499,395.752075 C1151.17868,433.377505 1205.83626,435.309077 1236.81493,409.293206 C1220.06372,375.10839 1239.96206,310.461062 1271.10663,306.36653 C1286.20383,304.379625 1301.96967,318.609885 1303.58848,333.453821 C1307.09256,365.525978 1272.85113,392.834595 1259.37274,410.19863 C1268.8795,417.909831 1281.3323,426.727663 1293.89571,425.510369 C1309.43029,423.996298 1323.6678,415.077864 1330.66088,406.586992 C1340.11234,395.113248 1346.50213,376.53695 1344.19959,358.735292 C1341.68088,339.27872 1327.18696,317.281928 1340.58994,301.849466 C1357.67295,303.117061 1361.73003,310.461062 1376.68647,308.172349 C1384.08676,307.040568 1390.09949,303.343417 1396.53453,300.043647 C1408.74602,293.786156 1418.83092,283.534735 1429.02643,294.631219 C1420.33914,321.00926 1386.66077,337.840101 1398.34438,374.982637 C1405.86533,398.911002 1430.13748,422.844396 1450.67932,425.54558 C1477.86735,429.132068 1505.06543,418.538599 1528.28686,407.492416 C1549.15548,397.567955 1586.98646,374.932336 1615.52182,353.594492 C1645.28889,331.336133 1685.86983,294.777093 1690.72125,289.329454 C1695.56763,283.876784 1703.56618,283.368741 1698.23717,292.463229 C1688.0869,309.787023 1589.5102,401.244985 1496.70491,434.574677 C1469.29568,444.423687 1431.79149,441.360333 1410.07324,421.938972 C1398.95772,411.99439 1382.3322,390.550913 1379.39119,369.570209 C1375.84187,344.233406 1389.81796,333.363278 1397.43946,317.201446 Z M996.406006,76.5445722 C990.820596,85.1964089 967.659494,134.823747 961.581402,177.252957 C955.417844,220.305905 954.166028,264.123434 951.65737,309.978169 C980.127376,256.588288 1017.44053,182.625144 1023.8454,107.731425 C1027.71648,62.4300061 1012.94606,50.9562622 996.406006,76.5445722 Z M1135.74464,313.589807 C1126.74565,334.681174 1123.79961,354.323862 1125.81558,377.693881 C1128.28402,375.852851 1135.57371,365.742274 1140.2542,359.640717 C1166.51216,325.38045 1175.72733,292.065849 1162.81201,287.407941 C1149.90172,282.745004 1141.30492,300.551691 1135.74464,313.589807 Z M1287.34504,333.453821 C1286.95291,328.67016 1284.42917,321.180285 1281.03066,319.007266 C1260.36314,305.788064 1246.21109,354.077385 1245.83403,372.276423 C1245.62791,382.140523 1247.48301,390.958354 1250.34861,396.65247 C1264.43531,383.443328 1289.4314,358.805714 1287.34504,333.453821 Z M429.10832,324.673716 C429.485373,320.488641 440.062963,318.521857 442.647033,321.962471 C445.226074,325.403086 442.647033,345.080984 442.647033,359.884679 C442.647033,389.482009 439.731157,439.868897 467.009676,443.857796 C478.195579,445.487561 492.488397,434.038968 499.496553,426.699997 C523.653075,401.408465 539.886458,363.385655 549.126768,323.768291 C541.18352,323.043951 527.695082,324.195853 513.030238,322.867896 C503.694409,322.022833 488.119611,323.00874 487.762667,315.644619 C487.229766,304.482743 511.466725,310.443456 518.273787,310.654722 C530.877408,311.042043 547.321941,310.22716 551.836521,309.321736 C556.733181,283.230412 554.480919,236.485343 556.346074,229.870712 C558.216256,223.251051 569.351885,223.874788 571.684585,229.870712 C574.022313,235.861606 569.060297,279.357206 568.07996,305.715127 C590.607613,305.544102 622.546506,291.902369 627.20688,290.780648 C633.400602,289.281667 632.862673,298.265493 628.539133,300.292639 C624.215593,302.319784 589.808261,315.025912 568.07996,320.156652 C564.701566,367.842357 581.407522,423.048117 634.85854,431.21203 C654.631193,434.240173 676.897423,427.535 698.022439,419.476719 C703.818999,417.263459 712.717447,411.483831 716.975631,416.765475 C721.228788,422.05718 702.431444,431.005795 693.512887,433.923275 C664.14298,443.525807 630.198166,448.596186 601.466736,433.923275 C576.01818,417.851985 560.046219,392.298886 555.446174,355.372645 C543.551412,379.492155 529.183184,414.164894 509.425612,434.823669 C501.276243,443.344722 487.169437,454.023704 474.228982,455.593107 C430.621559,460.864692 429.661331,413.868116 428.208421,375.231629 C417.002409,391.34819 404.735622,422.615525 387.597311,433.923275 C373.229082,443.400054 348.831247,438.405127 348.796055,416.765475 C339.349624,426.554123 319.647353,435.276382 300.96564,427.605422 C283.7117,420.512928 274.129529,397.178119 272.093443,374.331234 C269.09713,340.760096 286.858834,295.639761 264.874137,274.110772 C232.377206,296.374161 228.169296,346.937105 214.338996,387.877395 C209.346815,389.049417 206.159462,388.304956 202.60511,386.066545 C204.158568,356.710662 201.353294,313.275424 203.510037,275.016197 C179.222804,287.289733 136.91747,289.251487 99.7350275,282.234445 C108.623421,310.57927 130.396968,352.545708 124.213301,389.487039 C116.928639,432.987669 97.9553379,445.648525 79.8819362,445.663616 C55.9566737,445.673676 52.9804696,415.573332 47.3950595,392.394458 C40.8846129,410.910395 30.4678985,449.82857 4.97912335,437.539943 C-8.63499956,430.970584 -13.5819334,403.511062 -13.9690411,383.360331 C-14.3863129,361.645227 -10.5755651,330.392982 -3.14008215,305.715127 C0.298640177,294.291684 4.9690686,281.761612 8.58877632,270.499134 C12.3190862,258.894606 15.0187849,239.272039 26.6370412,241.606023 C38.2603248,243.945037 23.7915487,266.751681 19.4177352,279.528231 C-14.4365866,378.516309 6.33651374,426.840841 13.1033562,427.605422 C19.8701987,428.364972 34.2836737,393.56648 40.1757535,330.091174 C40.6684359,324.759228 47.1889372,325.709924 51.904612,327.37993 C55.8913178,333.677662 53.2921666,341.479405 53.7094385,349.049763 C55.0618015,373.556593 60.3304872,405.025134 68.1480504,421.282539 C71.0689534,427.353915 77.9011517,433.651647 81.6867627,433.923275 C90.9672911,434.597313 100.448914,419.602473 102.439754,415.870111 C118.281002,386.121877 109.372499,345.66448 98.8301006,317.450438 C93.3804296,302.852979 86.4074648,287.264582 79.8819362,280.433655 C76.7448562,277.148975 69.8372473,274.578575 69.9528768,270.499134 C70.3148476,257.57168 89.5294627,267.269785 95.2204476,268.693314 C106.481761,271.510191 122.247599,272.757665 135.82653,274.110772 C162.541984,276.771715 184.73783,270.448832 205.314863,258.758792 C205.329945,223.311413 211.895693,156.958867 235.996914,133.256859 C239.792579,129.529527 245.307606,126.591926 250.435525,126.939006 C266.201363,128.000365 272.525797,142.381528 275.200359,150.364357 C277.874921,158.342155 280.383579,168.729389 272.093443,196.460538 C263.803307,224.191687 241.713035,249.588851 217.043722,266.887495 C215.309278,288.134796 213.303357,309.160771 215.238895,330.991568 C224.986969,308.894174 229.868547,286.308856 247.725772,269.593709 C263.758061,254.588808 286.039373,264.397577 289.236781,287.656933 C292.831352,313.768377 283.394975,341.806364 285.627128,369.819201 C287.30627,390.885417 300.75449,427.17786 327.138137,417.6709 C337.283374,414.01902 347.976594,398.013122 354.210535,386.066545 C363.315105,368.611968 370.393645,351.982333 382.182832,338.214846 C387.366052,332.168621 394.147976,325.377935 401.136023,319.256257 C406.726461,314.351873 418.369854,302.863039 425.498667,309.321736 C432.62748,315.780432 412.714061,330.196807 404.645129,337.369783 C394.655741,346.253006 367.693946,374.980122 361.429841,409.542197 C360.459558,414.904324 364.270306,425.392161 369.549046,426.699997 C378.442467,428.903197 386.938725,416.508938 391.206964,411.348017 C397.395659,403.878263 402.860412,396.222393 406.550503,389.678184 C418.988221,367.646181 427.072235,347.198672 429.10832,324.673716 Z M251.109193,136.95904 C234.237333,135.525451 214.685884,195.273425 217.948649,248.829301 C287.53753,197.6225 264.974685,138.136092 251.109193,136.95904 Z"/>
</svg>
